<?xml version="1.0" encoding="UTF-8" standalone="no"?>
<!-- Created with Inkscape (http://www.inkscape.org/) -->

<svg
   xmlns:dc="http://purl.org/dc/elements/1.1/"
   xmlns:cc="http://creativecommons.org/ns#"
   xmlns:rdf="http://www.w3.org/1999/02/22-rdf-syntax-ns#"
   xmlns:svg="http://www.w3.org/2000/svg"
   xmlns="http://www.w3.org/2000/svg"
   xmlns:sodipodi="http://sodipodi.sourceforge.net/DTD/sodipodi-0.dtd"
   xmlns:inkscape="http://www.inkscape.org/namespaces/inkscape"
   width="18"
   height="18"
   id="svg4703"
   version="1.1"
   inkscape:version="0.91 r13725"
   sodipodi:docname="page-indicator-active.svg">
  <defs
     id="defs4705" />
  <sodipodi:namedview
     id="base"
     pagecolor="#ffffff"
     bordercolor="#666666"
     borderopacity="1.0"
     inkscape:pageopacity="0.0"
     inkscape:pageshadow="2"
     inkscape:zoom="31.392433"
     inkscape:cx="-0.54771137"
     inkscape:cy="10.759406"
     inkscape:current-layer="layer1"
     showgrid="true"
     inkscape:grid-bbox="true"
     inkscape:document-units="px"
     inkscape:window-width="1920"
     inkscape:window-height="1019"
     inkscape:window-x="0"
     inkscape:window-y="27"
     inkscape:window-maximized="1">
    <inkscape:grid
       type="xygrid"
       id="grid6140" />
  </sodipodi:namedview>
  <metadata
     id="metadata4708">
    <rdf:RDF>
      <cc:Work
         rdf:about="">
        <dc:format>image/svg+xml</dc:format>
        <dc:type
           rdf:resource="http://purl.org/dc/dcmitype/StillImage" />
        <dc:title />
      </cc:Work>
    </rdf:RDF>
  </metadata>
  <g
     id="layer1"
     inkscape:label="Layer 1"
     inkscape:groupmode="layer"
     transform="translate(0,2)">
    <circle
       r="8"
       cy="7"
       cx="9"
       id="path4711-8"
       style="fill:#154478;fill-opacity:1;stroke:none;opacity:1" />
    <path
       transform="matrix(0.54617904,0,0,0.62523128,-1131.9904,-392.39214)"
       d="m 2099.9808,638.83099 a 10.985409,9.5964489 0 0 1 -10.9854,9.59645 10.985409,9.5964489 0 0 1 -10.9854,-9.59645 10.985409,9.5964489 0 0 1 10.9854,-9.59645 10.985409,9.5964489 0 0 1 10.9854,9.59645 z"
       sodipodi:ry="9.5964489"
       sodipodi:rx="10.985409"
       sodipodi:cy="638.83099"
       sodipodi:cx="2088.9954"
       id="path4711"
       style="fill:#154478;fill-opacity:1;stroke:none"
       sodipodi:type="arc" />
    <path
       style="opacity:0.02;fill:#ffffff;fill-opacity:1;stroke:none"
       d="m 8.932,-1.0419535 c -3.3137085,0 -7.5608857,2.5588722 -7.5608857,5.8725807 C 1.3726721,4.9969228 1.221869,5.0038078 1.2372312,5.1693997 1.4980321,2.0628872 5.8145601,-0.03968939 8.932,-0.0419536 c 3.11882,0.0024345 7.658868,2.6487342 7.917753,5.7567921 0.01547,-0.1668898 -0.07162,-0.1432257 -0.07017,-0.3108248 0,-3.3137084 -4.533871,-6.4459672 -7.847579,-6.4459672 z"
       id="path4711-3"
       inkscape:connector-curvature="0"
       sodipodi:nodetypes="scccccs" />
  </g>
</svg>
