<?xml version="1.0" encoding="UTF-8" standalone="no"?>
<!-- Generator: Adobe Illustrator 13.0.2, SVG Export Plug-In . SVG Version: 6.00 Build 14948)  -->

<svg
   xmlns:dc="http://purl.org/dc/elements/1.1/"
   xmlns:cc="http://creativecommons.org/ns#"
   xmlns:rdf="http://www.w3.org/1999/02/22-rdf-syntax-ns#"
   xmlns:svg="http://www.w3.org/2000/svg"
   xmlns="http://www.w3.org/2000/svg"
   xmlns:xlink="http://www.w3.org/1999/xlink"
   xmlns:sodipodi="http://sodipodi.sourceforge.net/DTD/sodipodi-0.dtd"
   xmlns:inkscape="http://www.inkscape.org/namespaces/inkscape"
   version="1.0"
   id="Foreground"
   x="0px"
   y="0px"
   width="18"
   height="18"
   viewBox="0 0 13.090909 13.090909"
   enable-background="new 0 0 16 16"
   xml:space="preserve"
   sodipodi:version="0.32"
   inkscape:version="0.91 r13725"
   sodipodi:docname="maximize_unfocused_pressed.svg"
   inkscape:output_extension="org.inkscape.output.svg.inkscape"><metadata
     id="metadata2399"><rdf:RDF><cc:Work
         rdf:about=""><dc:format>image/svg+xml</dc:format><dc:type
           rdf:resource="http://purl.org/dc/dcmitype/StillImage" /><dc:title></dc:title></cc:Work></rdf:RDF></metadata><defs
     id="defs2397"><linearGradient
       id="linearGradient4225"><stop
         id="stop4227"
         offset="0"
         style="stop-color:#aaaaaa;stop-opacity:0.3" /><stop
         style="stop-color:#000000;stop-opacity:0"
         offset="0.18601279"
         id="stop4229" /><stop
         id="stop4231"
         offset="1"
         style="stop-color:#000000;stop-opacity:0" /></linearGradient><linearGradient
       id="linearGradient4217"><stop
         id="stop4219"
         offset="0"
         style="stop-color:#ffffff;stop-opacity:0.08" /><stop
         style="stop-color:#000000;stop-opacity:0.03"
         offset="0.40000001"
         id="stop4221" /><stop
         id="stop4223"
         offset="1"
         style="stop-color:#000000;stop-opacity:0.08" /></linearGradient><linearGradient
       id="linearGradient4226"><stop
         id="stop4228"
         offset="0"
         style="stop-color:#161616;stop-opacity:1" /><stop
         style="stop-color:#222222;stop-opacity:1"
         offset="1"
         id="stop4230" /><stop
         id="stop4232"
         offset="1"
         style="stop-color:#222222;stop-opacity:1" /></linearGradient><linearGradient
       id="linearGradient4568"><stop
         id="stop4570"
         offset="0"
         style="stop-color:#000000;stop-opacity:0.12" /><stop
         style="stop-color:#000000;stop-opacity:0"
         offset="0.13344744"
         id="stop4572" /><stop
         id="stop4574"
         offset="1"
         style="stop-color:#000000;stop-opacity:0" /></linearGradient><linearGradient
       id="linearGradient4217-1"><stop
         id="stop4219-9"
         offset="0"
         style="stop-color:#000000;stop-opacity:0.2" /><stop
         style="stop-color:#000000;stop-opacity:0.15000001"
         offset="0.40000001"
         id="stop4221-6" /><stop
         id="stop4223-4"
         offset="1"
         style="stop-color:#000000;stop-opacity:0.1" /></linearGradient><linearGradient
       id="linearGradient4225-8"><stop
         id="stop4227-1"
         offset="0"
         style="stop-color:#000000;stop-opacity:0.15000001" /><stop
         style="stop-color:#000000;stop-opacity:0.15000001"
         offset="0.49273404"
         id="stop4229-8" /><stop
         id="stop4231-4"
         offset="1"
         style="stop-color:#000000;stop-opacity:0.04" /></linearGradient><linearGradient
       id="linearGradient4375"><stop
         id="stop4377"
         offset="0"
         style="stop-color:#161616;stop-opacity:1" /><stop
         style="stop-color:#222222;stop-opacity:1"
         offset="0.96000123"
         id="stop4379" /><stop
         id="stop4381"
         offset="1"
         style="stop-color:#222222;stop-opacity:1" /></linearGradient><linearGradient
       inkscape:collect="always"
       xlink:href="#linearGradient4568"
       id="linearGradient3835-8"
       gradientUnits="userSpaceOnUse"
       gradientTransform="matrix(0.734724,0,0,0.78519018,0.70793267,0.34517002)"
       x1="7.9643841"
       y1="1.1360223"
       x2="7.999999"
       y2="14.003025" /><linearGradient
       inkscape:collect="always"
       xlink:href="#linearGradient4225-8"
       id="linearGradient3835"
       gradientUnits="userSpaceOnUse"
       gradientTransform="matrix(0.734724,0,0,0.78519018,0.67099612,0.25983351)"
       x1="7.9643841"
       y1="1.1360223"
       x2="7.999999"
       y2="14.003025" /></defs><sodipodi:namedview
     inkscape:window-height="1019"
     inkscape:window-width="1920"
     inkscape:pageshadow="2"
     inkscape:pageopacity="0"
     guidetolerance="10.0"
     gridtolerance="10.0"
     objecttolerance="10.0"
     borderopacity="1.0"
     bordercolor="#666666"
     pagecolor="#ffffff"
     id="base"
     showgrid="true"
     inkscape:zoom="21.11"
     inkscape:cx="-7.3905687"
     inkscape:cy="13.750599"
     inkscape:window-x="0"
     inkscape:window-y="27"
     inkscape:current-layer="Foreground"
     showguides="true"
     inkscape:guide-bbox="true"
     borderlayer="true"
     inkscape:showpageshadow="false"
     inkscape:window-maximized="1"><inkscape:grid
       type="xygrid"
       id="grid11246"
       empspacing="5"
       visible="true"
       enabled="true"
       snapvisiblegridlinesonly="true" /></sodipodi:namedview><g
     inkscape:label="window-close"
     id="g27275-6-6-6"
     style="display:inline;fill:#000000;fill-opacity:1"
     transform="matrix(0.72727272,0,0,0.72727272,-10.829526,-9.3847993)"><g
       transform="translate(-41,-760)"
       id="g27277-1-1-2"
       style="display:inline;fill:#000000;fill-opacity:1"><path
         d="m 44.226475,764.17222 1,0 c 0.01037,-1.2e-4 0.02079,-4.6e-4 0.03125,0 0.254951,0.0112 0.50987,0.12858 0.6875,0.3125 l 2.28125,2.28125 2.3125,-2.28125 c 0.265625,-0.2305 0.446672,-0.3055 0.6875,-0.3125 l 1,0 0,1 c 0,0.28647 -0.03434,0.55065 -0.25,0.75 l -2.28125,2.28125 2.25,2.25 c 0.188188,0.18817 0.281242,0.45345 0.28125,0.71875 l 0,1 -1,0 c -0.265301,-1e-5 -0.530586,-0.0931 -0.71875,-0.28125 l -2.28125,-2.28125 -2.28125,2.28125 c -0.188164,0.18819 -0.45346,0.28125 -0.71875,0.28125 l -1,0 0,-1 c -3e-6,-0.26529 0.09306,-0.53058 0.28125,-0.71875 l 2.28125,-2.25 -2.28125,-2.28125 c -0.210742,-0.19463 -0.30316,-0.46925 -0.28125,-0.75 l 0,-1 z"
         inkscape:connector-curvature="0"
         id="path27279-0-5-8"
         style="color:#bebebe;font-style:normal;font-variant:normal;font-weight:normal;font-stretch:normal;font-size:medium;line-height:normal;font-family:'Andale Mono';-inkscape-font-specification:'Andale Mono';text-indent:0;text-align:start;text-decoration:none;text-decoration-line:none;letter-spacing:normal;word-spacing:normal;text-transform:none;direction:ltr;block-progression:tb;writing-mode:lr-tb;text-anchor:start;display:inline;overflow:visible;visibility:visible;fill:#00070b;fill-opacity:1;fill-rule:nonzero;stroke:none;stroke-width:1.78124988;marker:none;enable-background:new"
         sodipodi:nodetypes="ccsccccccccccccccccccccccc" /></g></g><g
     inkscape:label="window-close"
     id="g27275-6-6"
     style="display:inline;fill:#ffffff;fill-opacity:1"
     transform="matrix(0.72727273,0,0,0.72727273,-10.387762,-4.5994808)"><g
       transform="translate(-41,-760)"
       id="g27277-1-1"
       style="display:inline;fill:#ffffff;fill-opacity:1"><path
         d="m 44.226475,764.17222 1,0 c 0.01037,-1.2e-4 0.02079,-4.6e-4 0.03125,0 0.254951,0.0112 0.50987,0.12858 0.6875,0.3125 l 2.28125,2.28125 2.3125,-2.28125 c 0.265625,-0.2305 0.446672,-0.3055 0.6875,-0.3125 l 1,0 0,1 c 0,0.28647 -0.03434,0.55065 -0.25,0.75 l -2.28125,2.28125 2.25,2.25 c 0.188188,0.18817 0.281242,0.45345 0.28125,0.71875 l 0,1 -1,0 c -0.265301,-1e-5 -0.530586,-0.0931 -0.71875,-0.28125 l -2.28125,-2.28125 -2.28125,2.28125 c -0.188164,0.18819 -0.45346,0.28125 -0.71875,0.28125 l -1,0 0,-1 c -3e-6,-0.26529 0.09306,-0.53058 0.28125,-0.71875 l 2.28125,-2.25 -2.28125,-2.28125 c -0.210742,-0.19463 -0.30316,-0.46925 -0.28125,-0.75 l 0,-1 z"
         inkscape:connector-curvature="0"
         id="path27279-0-5"
         style="color:#bebebe;font-style:normal;font-variant:normal;font-weight:normal;font-stretch:normal;font-size:medium;line-height:normal;font-family:'Andale Mono';-inkscape-font-specification:'Andale Mono';text-indent:0;text-align:start;text-decoration:none;text-decoration-line:none;letter-spacing:normal;word-spacing:normal;text-transform:none;direction:ltr;block-progression:tb;writing-mode:lr-tb;text-anchor:start;display:inline;overflow:visible;visibility:visible;fill:#dbdbdb;fill-opacity:1;fill-rule:nonzero;stroke:none;stroke-width:1.78124988;marker:none;enable-background:new"
         sodipodi:nodetypes="ccsccccccccccccccccccccccc" /></g></g><g
     id="g4318"><rect
       style="color:#000000;display:inline;overflow:visible;visibility:visible;opacity:1;fill:none;stroke:url(#linearGradient3835-8);stroke-width:0.75953805;stroke-miterlimit:4;stroke-dasharray:none;stroke-opacity:1;marker:none;enable-background:accumulate"
       id="rect17861-6-5"
       width="9.5514135"
       height="9.4222794"
       x="1.8100185"
       y="1.5229553"
       rx="1.3728236"
       ry="1.3542634" /><rect
       style="color:#000000;display:inline;overflow:visible;visibility:visible;opacity:1;fill:none;stroke:url(#linearGradient3835);stroke-width:0.75953805;stroke-miterlimit:4;stroke-dasharray:none;stroke-opacity:1;marker:none;enable-background:accumulate"
       id="rect17861-6"
       width="9.5514135"
       height="9.4222794"
       x="1.7730814"
       y="1.4376187"
       rx="0.74419945"
       ry="0.74419945" /><rect
       style="color:#000000;display:inline;overflow:visible;visibility:visible;opacity:1;fill:none;stroke:#ffffff;stroke-width:0.73676664;stroke-miterlimit:4;stroke-dasharray:none;stroke-opacity:0.02999998;marker:none;enable-background:accumulate"
       id="rect17861-2"
       width="10.936784"
       height="11.664056"
       x="1.0674833"
       y="0.71342671"
       rx="1.8860018"
       ry="1.8860018" /><rect
       style="color:#000000;display:inline;overflow:visible;visibility:visible;fill:#131313;fill-opacity:1;stroke:#131313;stroke-width:0.75112402;stroke-miterlimit:4;stroke-dasharray:none;stroke-opacity:1;marker:none;enable-background:accumulate"
       id="rect17861-9"
       width="10.909091"
       height="10.860605"
       x="1.107156"
       y="0.75779188"
       rx="0.99734265"
       ry="0.99734265" /></g><path
     inkscape:connector-curvature="0"
     style="opacity:0.2;fill:#00070b;fill-opacity:1;stroke:none;stroke-width:1;stroke-miterlimit:4;stroke-dasharray:none;stroke-opacity:0.09411765"
     d="m 3.6363639,3.9863369 0,0.03835 0,2.0369322 0,2.326704 0,1.454546 5.8181814,0 0,-1.454546 0,-2.326704 0,-2.0369322 0,-0.03835 -5.8181814,0 z m 1.4545454,2.0752842 2.909091,0 0,2.326704 -2.909091,0 0,-2.326704 z"
     id="rect4140-7" /><path
     inkscape:connector-curvature="0"
     style="opacity:1;fill:#dbdbdb;fill-opacity:1;stroke:none;stroke-width:1;stroke-miterlimit:4;stroke-dasharray:none;stroke-opacity:0.09411765"
     d="m 3.6363639,3.24804 0,0.038352 0,2.0369315 0,2.3267045 0,1.4545453 5.8181813,0 0,-1.4545453 0,-2.3267045 0,-2.0369315 0,-0.038349 -5.8181813,0 z m 1.4545453,2.0752835 2.9090906,0 0,2.3267045 -2.9090906,0 0,-2.3267045 z"
     id="rect4140" /></svg>